General
Complete name                  : C:UsersJosueDesktopBlogsVidsGranChesterFt.MagnateYValentino-SexoConPasion-musicvideos-hq.net.mp4
Format                         : MPEG-4
Format profile                 : Base Media
Codec ID                       : isom
File size                      : 60.6 MiB
Duration                       : 3mn 48s
Overall bit rate mode          : Variable
Overall bit rate               : 2 223 Kbps
Encoded date                   : UTC 2012-10-11 02:57:22
Tagged date                    : UTC 2012-10-11 02:57:22

Video
ID                             : 1
Format                         : AVC
Format/Info                    : Advanced Video Codec
Format profile                 : High@L3.0
Format settings, CABAC         : Yes
Format settings, ReFrames      : 2 frames
Codec ID                       : avc1
Codec ID/Info                  : Advanced Video Coding
Duration                       : 3mn 48s
Bit rate                       : 2 027 Kbps
Maximum bit rate               : 3 786 Kbps
Width                          : 720 pixels
Height                         : 480 pixels
Display aspect ratio           : 16:9
Original display aspect ratio  : 16:9
Frame rate mode                : Constant
Frame rate                     : 23.976 fps
Standard                       : NTSC
Color space                    : YUV
Chroma subsampling             : 4:2:0
Bit depth                      : 8 bits
Scan type                      : Progressive
Bits/(Pixel*Frame)             : 0.245
Stream size                    : 55.2 MiB (91%)
Writing library                : x264 core 125 r2208 d9d2288
Encoding settings              : cabac=1 / ref=2 / deblock=1:0:0 / analyse=0x3:0x113 / me=hex / subme=6 / psy=1 / psy_rd=1.00:0.00 / mixed_ref=1 / me_range=16 / chroma_me=1 / trellis=1 / 8x8dct=1 / cqm=0 / deadzone=21,11 / fast_pskip=1 / chroma_qp_offset=-2 / threads=2 / lookahead_threads=1 / sliced_threads=0 / nr=0 / decimate=1 / interlaced=0 / bluray_compat=0 / constrained_intra=0 / bframes=1 / b_pyramid=0 / b_adapt=1 / b_bias=0 / direct=1 / weightb=1 / open_gop=0 / weightp=2 / keyint=250 / keyint_min=25 / scenecut=40 / intra_refresh=0 / rc_lookahead=30 / rc=crf / mbtree=1 / crf=15.0 / qcomp=0.60 / qpmin=0 / qpmax=69 / qpstep=4 / ip_ratio=1.40 / aq=1:1.00
Encoded date                   : UTC 2012-10-11 02:57:22
Tagged date                    : UTC 2012-10-11 02:57:23

Audio
ID                             : 2
Format                         : AAC
Format/Info                    : Advanced Audio Codec
Format profile                 : LC
Codec ID                       : 40
Duration                       : 3mn 48s
Bit rate mode                  : Variable
Bit rate                       : 192 Kbps
Maximum bit rate               : 219 Kbps
Channel(s)                     : 2 channels
Channel positions              : Front: L R
Sampling rate                  : 44.1 KHz
Compression mode               : Lossy
Stream size                    : 5.23 MiB (9%)
Encoded date                   : UTC 2012-10-11 02:57:23
Tagged date                    : UTC 2012-10-11 02:57:23

